Normalized EMG Linear Envelopes
nRows=21
nColumns=17

endheader
time	        VM	        VL	        RF	       GRA	        TA	   ADDLONG	   SEMIMEM	      BFLH	        GM	        GL	       TFL	   GLUTMAX	   GLUTMED	      PIRI	    OBTINT	        QF	
2.01	  0.666561	  0.172256	  0.048445	  0.296008	  0.365366	  0.084932	  0.793836	  0.765436	  0.464852	  0.173987	  0.038793	  1.059731	  0.290100	  0.393196	  0.878843	  1.522562	
2.0105	  0.675128	  0.175683	  0.049105	  0.294921	  0.362859	  0.084853	  0.791731	  0.762810	  0.465640	  0.175291	  0.038863	  1.060686	  0.291190	  0.394527	  0.882298	  1.527652	
2.011	  0.683677	  0.179148	  0.049767	  0.293828	  0.360339	  0.084769	  0.789582	  0.760144	  0.466447	  0.176642	  0.038934	  1.061527	  0.292285	  0.395842	  0.885728	  1.532579	
2.0115	  0.692202	  0.182650	  0.050429	  0.292732	  0.357808	  0.084680	  0.787390	  0.757438	  0.467273	  0.178041	  0.039006	  1.062255	  0.293385	  0.397141	  0.889129	  1.537345	
2.012	  0.700701	  0.186190	  0.051092	  0.291632	  0.355267	  0.084588	  0.785152	  0.754694	  0.468118	  0.179489	  0.039079	  1.062870	  0.294488	  0.398424	  0.892500	  1.541952	
2.0125	  0.709170	  0.189767	  0.051756	  0.290529	  0.352718	  0.084491	  0.782868	  0.751915	  0.468985	  0.180986	  0.039154	  1.063372	  0.295593	  0.399689	  0.895839	  1.546401	
2.013	  0.717606	  0.193381	  0.052419	  0.289425	  0.350163	  0.084390	  0.780536	  0.749101	  0.469873	  0.182533	  0.039231	  1.063762	  0.296698	  0.400937	  0.899144	  1.550693	
2.0135	  0.726005	  0.197032	  0.053083	  0.288320	  0.347602	  0.084285	  0.778154	  0.746257	  0.470783	  0.184131	  0.039309	  1.064039	  0.297802	  0.402166	  0.902413	  1.554830	
2.014	  0.734363	  0.200719	  0.053747	  0.287215	  0.345037	  0.084177	  0.775721	  0.743383	  0.471716	  0.185779	  0.039389	  1.064206	  0.298904	  0.403376	  0.905645	  1.558811	
2.0145	  0.742679	  0.204443	  0.054410	  0.286110	  0.342469	  0.084065	  0.773235	  0.740481	  0.472672	  0.187479	  0.039471	  1.064261	  0.300002	  0.404566	  0.908837	  1.562636	
2.015	  0.750947	  0.208203	  0.055073	  0.285006	  0.339901	  0.083949	  0.770695	  0.737555	  0.473652	  0.189230	  0.039554	  1.064207	  0.301094	  0.405736	  0.911988	  1.566307	
2.0155	  0.759164	  0.211999	  0.055734	  0.283905	  0.337333	  0.083831	  0.768100	  0.734607	  0.474657	  0.191034	  0.039640	  1.064045	  0.302179	  0.406884	  0.915099	  1.569821	
2.016	  0.767327	  0.215829	  0.056394	  0.282807	  0.334767	  0.083709	  0.765448	  0.731637	  0.475686	  0.192890	  0.039727	  1.063776	  0.303255	  0.408011	  0.918166	  1.573178	
2.0165	  0.775431	  0.219695	  0.057053	  0.281712	  0.332204	  0.083584	  0.762737	  0.728649	  0.476740	  0.194799	  0.039817	  1.063402	  0.304320	  0.409116	  0.921191	  1.576378	
2.017	  0.783472	  0.223594	  0.057710	  0.280621	  0.329646	  0.083456	  0.759966	  0.725644	  0.477819	  0.196762	  0.039908	  1.062923	  0.305372	  0.410198	  0.924170	  1.579418	
2.0175	  0.791447	  0.227528	  0.058365	  0.279536	  0.327095	  0.083325	  0.757134	  0.722622	  0.478923	  0.198778	  0.040002	  1.062342	  0.306410	  0.411258	  0.927104	  1.582298	
2.018	  0.799352	  0.231494	  0.059018	  0.278456	  0.324552	  0.083191	  0.754241	  0.719586	  0.480053	  0.200848	  0.040097	  1.061660	  0.307432	  0.412295	  0.929991	  1.585015	
2.0185	  0.807182	  0.235494	  0.059669	  0.277381	  0.322018	  0.083054	  0.751287	  0.716537	  0.481209	  0.202972	  0.040195	  1.060880	  0.308435	  0.413309	  0.932830	  1.587570	
2.019	  0.814934	  0.239525	  0.060317	  0.276314	  0.319494	  0.082915	  0.748273	  0.713477	  0.482391	  0.205151	  0.040295	  1.060003	  0.309419	  0.414300	  0.935621	  1.589961	
2.0195	  0.822604	  0.243589	  0.060962	  0.275253	  0.316981	  0.082773	  0.745199	  0.710405	  0.483600	  0.207385	  0.040398	  1.059030	  0.310382	  0.415267	  0.938362	  1.592189	
2.02	  0.830187	  0.247683	  0.061604	  0.274200	  0.314481	  0.082629	  0.742068	  0.707324	  0.484836	  0.209674	  0.040503	  1.057964	  0.311322	  0.416210	  0.941052	  1.594255	
